<svg xmlns="http://www.w3.org/2000/svg" version="1.1" xmlns:xlink="http://www.w3.org/1999/xlink" viewBox="0 0 200 200"><rect width="200" height="200" fill="url('#gradient')"></rect><defs><linearGradient id="gradient" gradientTransform="rotate(45 0.5 0.5)"><stop offset="0%" stop-color="#82e2a0"></stop><stop offset="100%" stop-color="#2a6246"></stop></linearGradient></defs><g><g fill="#d0cb3f" transform="matrix(5.0818858560794045,0,0,5.0818858560794045,4.5579996727240655,136.13646484782026)" stroke="#d33939" stroke-width="0.2"><path d="M4.50-14.22L4.50-2.64L10.47-2.64L10.47 0L1.07 0L1.07-14.22L4.50-14.22ZM19.71 0L17.20-5.02L15.34-5.02L15.34 0L11.91 0L11.91-14.22L17.51-14.22Q20.04-14.22 21.46-13.10Q22.89-11.97 22.89-9.92L22.89-9.92Q22.89-8.44 22.29-7.46Q21.69-6.48 20.41-5.88L20.41-5.88L23.38-0.15L23.38 0L19.71 0ZM15.34-11.57L15.34-7.67L17.51-7.67Q18.49-7.67 18.98-8.18Q19.47-8.69 19.47-9.61Q19.47-10.53 18.97-11.05Q18.48-11.57 17.51-11.57L17.51-11.57L15.34-11.57ZM33.06-4.81L36.46-4.81Q36.40-3.33 35.66-2.19Q34.93-1.05 33.61-0.43Q32.29 0.20 30.59 0.20L30.59 0.20Q27.78 0.20 26.17-1.63Q24.56-3.46 24.56-6.79L24.56-6.79L24.56-7.49Q24.56-9.58 25.29-11.15Q26.02-12.71 27.38-13.57Q28.75-14.42 30.55-14.42L30.55-14.42Q33.13-14.42 34.71-13.06Q36.28-11.70 36.49-9.31L36.49-9.31L33.08-9.31Q33.04-10.61 32.42-11.17Q31.81-11.74 30.55-11.74L30.55-11.74Q29.27-11.74 28.67-10.78Q28.08-9.82 28.05-7.72L28.05-7.72L28.05-6.72Q28.05-4.44 28.62-3.47Q29.19-2.49 30.59-2.49L30.59-2.49Q31.77-2.49 32.39-3.05Q33.02-3.60 33.06-4.81L33.06-4.81Z"></path></g></g></svg>